<svg xmlns="http://www.w3.org/2000/svg" version="1.1" xmlns:xlink="http://www.w3.org/1999/xlink"
    xmlns:svgjs="http://svgjs.dev/svgjs" viewBox="0 0 800 800">
    <defs>
        <filter id="llleaves-blur-2" x="-100%" y="-100%" width="400%" height="400%">
            <feGaussianBlur in="SourceGraphic" stdDeviation="2"></feGaussianBlur>
        </filter>
        <filter id="llleaves-blur-3" x="-100%" y="-100%" width="400%" height="400%">
            <feGaussianBlur in="SourceGraphic" stdDeviation="4"></feGaussianBlur>
        </filter>
        <filter id="llleaves-blur-4" x="-100%" y="-100%" width="400%" height="400%">
            <feGaussianBlur in="SourceGraphic" stdDeviation="12"></feGaussianBlur>
        </filter>
    </defs>
    <g fill="#22c55e">
        <path d="M212 313H262C290 313 312 335 312 363H262C234 363 212 341 212 313Z "
            transform="matrix(-0.3163442067473996,0.1278113559169685,-0.1278113559169685,-0.3163442067473996,388.08242046775405,411.4377666303752)"
            filter="url(#llleaves-blur-2)" opacity="0.52"></path>
        <path d="M695 412H745C773 412 795 434 795 462H745C717 462 695 440 695 412Z "
            transform="matrix(-0.3675747421378586,0.025703329868658455,-0.025703329868658455,-0.3675747421378586,1030.0755380453083,578.4811815620935)"
            filter="url(#llleaves-blur-2)" opacity="0.56"></path>
        <path d="M497 274H547C575 274 597 296 597 324H547C519 324 497 302 497 274Z "
            transform="matrix(-0.18655680746497394,0.23037847107075346,-0.23037847107075346,-0.18655680746497394,717.929736533496,228.76346175632506)"
            filter="url(#llleaves-blur-3)" opacity="0.45"></path>
        <path d="M587 468H637C665 468 687 490 687 518H637C609 518 587 496 587 468Z "
            transform="matrix(-0.2720632054781502,0.17667991146716522,-0.17667991146716522,-0.2720632054781502,897.4074582428941,514.5820566961438)"
            filter="url(#llleaves-blur-2)" opacity="0.50"></path>
        <path d="M695 310H745C773 310 795 332 795 360H745C717 360 695 338 695 310Z "
            transform="matrix(-0.3675747421378586,0.025703329868658455,-0.025703329868658455,-0.3675747421378586,1027.4537983987054,438.98855786403215)"
            filter="url(#llleaves-blur-2)" opacity="0.56"></path>
        <path d="M164 403H214C242 403 264 425 264 453H214C186 453 164 431 164 403Z "
            transform="matrix(-0.364032114356771,0.0382613169916158,-0.0382613169916158,-0.364032114356771,308.27871614476055,575.6178231084923)"
            filter="url(#llleaves-blur-2)" opacity="0.56"></path>
        <path d="M548 17H598C626 17 648 39 648 67H598C570 67 548 45 548 17Z "
            transform="matrix(-0.012665319021384793,0.2416686834407283,-0.2416686834407283,-0.012665319021384793,615.7239454792987,-101.98592929865737)"
            filter="url(#llleaves-blur-3)" opacity="0.37"></path>
        <path d="M543 119H593C621 119 643 141 643 169H593C565 169 543 147 543 119Z "
            transform="matrix(-0.13695888965545902,0.24708037744739753,-0.24708037744739753,-0.13695888965545902,709.7961959181124,17.20341628407938)"
            filter="url(#llleaves-blur-3)" opacity="0.43"></path>
        <path d="M698 724H748C776 724 798 746 798 774H748C720 774 698 752 698 724Z "
            transform="matrix(-0.3675747421378586,0.025703329868658455,-0.025703329868658455,-0.3675747421378586,1042.1977011907434,1005.0873911194996)"
            filter="url(#llleaves-blur-2)" opacity="0.56"></path>
        <path d="M690 620H740C768 620 790 642 790 670H740C712 670 690 648 690 620Z "
            transform="matrix(-0.3675747421378586,0.025703329868658455,-0.025703329868658455,-0.3675747421378586,1028.5839569473,863.0652445761116)"
            filter="url(#llleaves-blur-2)" opacity="0.56"></path>
        <path d="M375 214H425C453 214 475 236 475 264H425C397 264 375 242 375 214Z "
            transform="matrix(-0.17177490211181773,0.23642786965741158,-0.23642786965741158,-0.17177490211181773,554.5105942456439,179.57235700032453)"
            filter="url(#llleaves-blur-3)" opacity="0.45"></path>
        <path d="M9 12H59C87 12 109 34 109 62H59C31 62 9 40 9 12Z "
            transform="matrix(-0.3615476436785295,0.04439246867454808,-0.04439246867454808,-0.3615476436785295,81.97383231799151,47.758107164307255)"
            filter="url(#llleaves-blur-2)" opacity="0.56"></path>
        <path d="M176 536H226C254 536 276 558 276 586H226C198 586 176 564 176 536Z "
            transform="matrix(-0.3495491705394024,0.07429896982446356,-0.07429896982446356,-0.3495491705394024,346.67983461342897,740.3055174922761)"
            filter="url(#llleaves-blur-2)" opacity="0.55"></path>
        <path d="M261 599H311C339 599 361 621 361 649H311C283 649 261 627 261 599Z "
            transform="matrix(-0.2592401090130751,0.18834896416274496,-0.18834896416274496,-0.2592401090130751,509.1534275406192,727.1893001695452)"
            filter="url(#llleaves-blur-2)" opacity="0.49"></path>
        <path d="M412 320H462C490 320 512 342 512 370H462C434 370 412 348 412 320Z "
            transform="matrix(-0.16220110223918463,0.24047302322955966,-0.24047302322955966,-0.16220110223918463,619.9001022487014,289.86084354046216)"
            filter="url(#llleaves-blur-3)" opacity="0.44"></path>
        <path d="M349 638H399C427 638 449 660 449 688H399C371 688 349 666 349 638Z "
            transform="matrix(-0.18698265096259506,0.2309043439950947,-0.2309043439950947,-0.18698265096259506,626.6956578028233,694.8386643341577)"
            filter="url(#llleaves-blur-3)" opacity="0.45"></path>
        <path d="M93 325H143C171 325 193 347 193 375H143C115 375 93 353 93 325Z "
            transform="matrix(-0.3817653431228871,-0.13145234943421388,0.13145234943421388,-0.3817653431228871,151.584121764598,502.41555606210306)"
            opacity="0.62"></path>
        <path d="M-3 350H47C75 350 97 372 97 400H47C19 400 -3 378 -3 350Z "
            transform="matrix(-0.2393876229449142,-0.3984079091958825,0.3984079091958825,-0.2393876229449142,-91.15174767004498,483.49553033654934)"
            opacity="0.71"></path>
        <path d="M594 712H644C672 712 694 734 694 762H644C616 762 594 740 594 712Z "
            transform="matrix(-0.2720632054781502,0.17667991146716522,-0.17667991146716522,-0.2720632054781502,949.4217990792295,823.7287194525422)"
            filter="url(#llleaves-blur-2)" opacity="0.50"></path>
        <path d="M493 393H543C571 393 593 415 593 443H543C515 443 493 421 493 393Z "
            transform="matrix(-0.18655680746497394,0.23037847107075346,-0.23037847107075346,-0.18655680746497394,740.5985473610559,370.88523572893996)"
            filter="url(#llleaves-blur-3)" opacity="0.45"></path>
        <path d="M165 647H215C243 647 265 669 265 697H215C187 697 165 675 165 647Z "
            transform="matrix(-0.364032114356771,0.0382613169916158,-0.0382613169916158,-0.364032114356771,318.97850960507157,908.4033976945527)"
            filter="url(#llleaves-blur-2)" opacity="0.56"></path>
        <path d="M318 303H368C396 303 418 325 418 353H368C340 353 318 331 318 303Z "
            transform="matrix(-0.19717537165158516,0.2268243182300445,-0.2268243182300445,-0.19717537165158516,514.9589131472379,309.20217279306354)"
            filter="url(#llleaves-blur-2)" opacity="0.46"></path>
        <path d="M490 719H540C568 719 590 741 590 769H540C512 769 490 747 490 719Z "
            transform="matrix(-0.18655680746497394,0.23037847107075346,-0.23037847107075346,-0.18655680746497394,812.1422585077264,758.3938903757337)"
            filter="url(#llleaves-blur-3)" opacity="0.45"></path>
        <path d="M287 122H337C365 122 387 144 387 172H337C309 172 287 150 287 122Z "
            transform="matrix(-0.13190182458298869,0.24807125232069643,-0.24807125232069643,-0.13190182458298869,417.9173889756096,82.78955618162466)"
            filter="url(#llleaves-blur-3)" opacity="0.43"></path>
        <path d="M-3 531H47C75 531 97 553 97 581H47C19 581 -3 559 -3 531Z "
            transform="matrix(-0.2393876229449142,-0.3984079091958825,0.3984079091958825,-0.2393876229449142,-163.26357923449967,707.8246900895788)"
            opacity="0.71"></path>
        <path d="M304 24H354C382 24 404 46 404 74H354C326 74 304 52 304 24Z "
            transform="matrix(0.038684095399540236,0.2193884069477695,-0.2193884069477695,0.038684095399540236,351.05586216900343,-30.559016734087876)"
            filter="url(#llleaves-blur-3)" opacity="0.34"></path>
        <path d="M361 530H411C439 530 461 552 461 580H411C383 580 361 558 361 530Z "
            transform="matrix(-0.17714194228553315,0.23507529720179823,-0.23507529720179823,-0.17714194228553315,614.2721282263522,556.6978308185318)"
            filter="url(#llleaves-blur-3)" opacity="0.45"></path>
        <path d="M-8 88H42C70 88 92 110 92 138H42C14 138 -8 116 -8 88Z "
            transform="matrix(-0.36836635838710996,-0.1958638670612189,0.1958638670612189,-0.36836635838710996,35.338770074340886,162.8516809143146)"
            opacity="0.64"></path>
        <path d="M692 517H742C770 517 792 539 792 567H742C714 567 692 545 692 517Z "
            transform="matrix(-0.3675747421378586,0.025703329868658455,-0.025703329868658455,-0.3675747421378586,1028.671663455104,722.1536394761748)"
            filter="url(#llleaves-blur-2)" opacity="0.56"></path>
        <path d="M99 471H149C177 471 199 493 199 521H149C121 521 99 499 99 471Z "
            transform="matrix(-0.3817653431228871,-0.13145234943421388,0.13145234943421388,-0.3817653431228871,140.6826708059401,704.9420102546499)"
            opacity="0.62"></path>
        <path d="M708 19H758C786 19 808 41 808 69H758C730 69 708 47 708 19Z "
            transform="matrix(-0.2725243087114123,0.17697935540809356,-0.17697935540809356,-0.2725243087114123,972.3605176412066,-78.15928181603277)"
            filter="url(#llleaves-blur-2)" opacity="0.50"></path>
        <path d="M118 20H168C196 20 218 42 218 70H168C140 70 118 48 118 20Z "
            transform="matrix(-0.176973907376694,0.23485230734617177,-0.23485230734617177,-0.176973907376694,208.29997026986229,13.508638197794376)"
            filter="url(#llleaves-blur-3)" opacity="0.45"></path>
        <path d="M-4 172H46C74 172 96 194 96 222H46C18 222 -4 200 -4 172Z "
            transform="matrix(-0.2393876229449142,-0.3984079091958825,0.3984079091958825,-0.2393876229449142,-21.474527456122786,262.48612554315866)"
            opacity="0.71"></path>
        <path d="M700 215H750C778 215 800 237 800 265H750C722 265 700 243 700 215Z "
            transform="matrix(-0.3767148215725574,-0.006575581669970772,0.006575581669970772,-0.3767148215725574,1030.9579765786252,335.3432434298919)"
            filter="url(#llleaves-blur-2)" opacity="0.58"></path>
        <path d="M628 35H678C706 35 728 57 728 85H678C650 85 628 63 628 35Z "
            transform="matrix(-0.14176456540846744,0.24554343000038706,-0.24554343000038706,-0.14176456540846744,788.8489811469641,-97.97257161575436)"
            filter="url(#llleaves-blur-3)" opacity="0.43"></path>
        <path d="M86 585H136C164 585 186 607 186 635H136C108 635 86 613 86 585Z "
            transform="matrix(-0.3817653431228871,-0.13145234943421388,0.13145234943421388,-0.3817653431228871,107.73415350984217,860.7543788280143)"
            opacity="0.62"></path>
        <path d="M251 723H301C329 723 351 745 351 773H301C273 773 251 751 251 723Z "
            transform="matrix(-0.2592401090130751,0.18834896416274496,-0.18834896416274496,-0.2592401090130751,519.9162980066689,885.218563328794)"
            filter="url(#llleaves-blur-2)" opacity="0.49"></path>
        <path d="M181 130H231C259 130 281 152 281 180H231C203 180 181 158 181 130Z "
            transform="matrix(-0.30909355539735694,0.13761731730690652,-0.13761731730690652,-0.30909355539735694,323.73129547935997,171.11990078869493)"
            filter="url(#llleaves-blur-2)" opacity="0.52"></path>
    </g>
    <g fill="none" stroke-width="3" stroke="#22c55e">
        <path d="M118 726H168C196 726 218 748 218 776H168C140 776 118 754 118 726Z "
            transform="matrix(-0.38227696222171687,-0.04017892777399928,0.04017892777399928,-0.38227696222171687,202.04815489497497,1044.8400584945412)"
            filter="url(#llleaves-blur-2)" opacity="0.59"></path>
        <path d="M6 729H56C84 729 106 751 106 779H56C28 779 6 757 6 729Z "
            transform="matrix(-0.2798520092498282,-0.3581942374917379,0.3581942374917379,-0.2798520092498282,-198.40674255078,985.0672922739077)"
            opacity="0.70"></path>
        <path d="M626 143H676C704 143 726 165 726 193H676C648 193 626 171 626 143Z "
            transform="matrix(-0.2854011117213085,0.16477640867931587,-0.16477640867931587,-0.2854011117213085,896.6135881817295,104.5585345019623)"
            filter="url(#llleaves-blur-2)" opacity="0.50"></path>
        <path d="M376 729H426C454 729 476 751 476 779H426C398 779 376 757 376 729Z "
            transform="matrix(-0.17177490211181773,0.23642786965741158,-0.23642786965741158,-0.17177490211181773,677.4427220213227,782.8000037182533)"
            filter="url(#llleaves-blur-3)" opacity="0.45"></path>
        <path d="M263 214H313C341 214 363 236 363 264H313C285 264 263 242 263 214Z "
            transform="matrix(-0.2592401090130751,0.18834896416274496,-0.18834896416274496,-0.2592401090130751,439.15755655598855,242.00516027118576)"
            filter="url(#llleaves-blur-2)" opacity="0.49"></path>
        <path d="M592 349H642C670 349 692 371 692 399H642C614 399 592 377 592 349Z "
            transform="matrix(-0.2720632054781502,0.17667991146716522,-0.17667991146716522,-0.2720632054781502,882.7428648056923,362.3231356869081)"
            filter="url(#llleaves-blur-2)" opacity="0.50"></path>
        <path d="M213 28H263C291 28 313 50 313 78H263C235 78 213 56 213 28Z "
            transform="matrix(-0.0770905794181856,0.2521519235504321,-0.2521519235504321,-0.0770905794181856,296.6388743351557,-9.230155184599795)"
            filter="url(#llleaves-blur-3)" opacity="0.40"></path>
        <path d="M164 236H214C242 236 264 258 264 286H214C186 286 164 264 164 236Z "
            transform="matrix(-0.364032114356771,0.0382613169916158,-0.0382613169916158,-0.364032114356771,301.8890762071607,347.8244600109115)"
            filter="url(#llleaves-blur-2)" opacity="0.56"></path>
        <path d="M590 236H640C668 236 690 258 690 286H640C612 286 590 264 590 236Z "
            transform="matrix(-0.2720632054781502,0.17667991146716522,-0.17667991146716522,-0.2720632054781502,860.2339083989463,218.93335329081145)"
            filter="url(#llleaves-blur-2)" opacity="0.50"></path>
        <path d="M379 424H429C457 424 479 446 479 474H429C401 474 379 452 379 424Z "
            transform="matrix(-0.17177490211181773,0.23642786965741158,-0.23642786965741158,-0.17177490211181773,608.8475464821477,424.6993749651766)"
            filter="url(#llleaves-blur-3)" opacity="0.45"></path>
        <path d="M573 589H623C651 589 673 611 673 639H623C595 639 573 617 573 589Z "
            transform="matrix(-0.25429014794618077,0.1916213708860832,-0.1916213708860832,-0.25429014794618077,899.0782838945257,650.7540367769252)"
            filter="url(#llleaves-blur-2)" opacity="0.49"></path>
        <path d="M470 43H520C548 43 570 65 570 93H520C492 93 470 71 470 43Z "
            transform="matrix(0.004123362288590022,0.23622726730304455,-0.23622726730304455,0.004123362288590022,533.9193057865402,-55.11856763320728)"
            filter="url(#llleaves-blur-3)" opacity="0.36"></path>
        <path d="M388 112H438C466 112 488 134 488 162H438C410 162 388 140 388 112Z "
            transform="matrix(-0.07693067944739858,0.2516289143122878,-0.2516289143122878,-0.07693067944739858,506.168798858744,37.326038615511564)"
            filter="url(#llleaves-blur-3)" opacity="0.40"></path>
        <path d="M258 483H308C336 483 358 505 358 533H308C280 533 258 511 258 483Z "
            transform="matrix(-0.2592401090130751,0.18834896416274496,-0.18834896416274496,-0.2592401090130751,483.52722737070155,581.6824944165166)"
            filter="url(#llleaves-blur-2)" opacity="0.49"></path>
        <path d="M9 434H59C87 434 109 456 109 484H59C31 484 9 462 9 434Z "
            transform="matrix(-0.2798520092498282,-0.3581942374917379,0.3581942374917379,-0.2798520092498282,-88.89988646296783,608.5855322576837)"
            opacity="0.70"></path>
        <path d="M708 114H758C786 114 808 136 808 164H758C730 164 708 142 708 114Z "
            transform="matrix(-0.34837952896637,0.07405035483331346,-0.07405035483331346,-0.34837952896637,1032.364682278339,131.29458556267383)"
            filter="url(#llleaves-blur-2)" opacity="0.55"></path>
        <path d="M85 204H135C163 204 185 226 185 254H135C107 254 85 232 85 204Z "
            transform="matrix(-0.3817653431228871,-0.13145234943421388,0.13145234943421388,-0.3817653431228871,156.43573330115478,334.17033074876)"
            opacity="0.62"></path>
        <path d="M458 614H508C536 614 558 636 558 664H508C480 664 458 642 458 614Z "
            transform="matrix(-0.17157197899992901,0.23614856995496222,-0.23614856995496222,-0.17157197899992901,746.0575015331848,628.6710210438339)"
            filter="url(#llleaves-blur-3)" opacity="0.45"></path>
        <path d="M392 16H442C470 16 492 38 492 66H442C414 66 392 44 392 16Z "
            transform="matrix(0.055425774636912846,0.2068518069938212,-0.2068518069938212,0.055425774636912846,425.9827316972312,-52.7009554513824)"
            filter="url(#llleaves-blur-3)" opacity="0.33"></path>
        <path d="M1 261H51C79 261 101 283 101 311H51C23 311 1 289 1 261Z "
            transform="matrix(-0.2798520092498282,-0.3581942374917379,0.3581942374917379,-0.2798520092498282,-37.17109945089581,384.30558075752947)"
            opacity="0.70"></path>
        <path d="M5 638H55C83 638 105 660 105 688H55C27 688 5 666 5 638Z "
            transform="matrix(-0.2798520092498282,-0.3581942374917379,0.3581942374917379,-0.2798520092498282,-167.09091894828168,868.2425651946817)"
            opacity="0.70"></path>
        <path d="M277 392H327C355 392 377 414 377 442H327C299 442 277 420 277 392Z "
            transform="matrix(-0.24098248434823716,0.20220831373679052,-0.20220831373679052,-0.24098248434823716,490.1221392101152,451.3675773812844)"
            filter="url(#llleaves-blur-2)" opacity="0.48"></path>
        <path d="M476 503H526C554 503 576 525 576 553H526C498 553 476 531 476 503Z "
            transform="matrix(-0.1768400149799867,0.234674626134467,-0.234674626134467,-0.1768400149799867,742.9260504784714,497.9326745627033)"
            filter="url(#llleaves-blur-3)" opacity="0.45"></path>
        <path d="M84 104H134C162 104 184 126 184 154H134C106 154 84 132 84 104Z "
            transform="matrix(-0.3622230148375142,0.0444753938257505,-0.0444753938257505,-0.3622230148375142,188.27520979174875,169.76706614138874)"
            filter="url(#llleaves-blur-2)" opacity="0.56"></path>
        <path d="M472 174H522C550 174 572 196 572 224H522C494 224 472 202 472 174Z "
            transform="matrix(-0.1768400149799867,0.234674626134467,-0.234674626134467,-0.1768400149799867,661.010738420312,111.69100813882558)"
            filter="url(#llleaves-blur-3)" opacity="0.45"></path>
    </g>
</svg>