<svg xmlns="http://www.w3.org/2000/svg" version="1.1" xmlns:xlink="http://www.w3.org/1999/xlink"
    xmlns:svgjs="http://svgjs.dev/svgjs" viewBox="0 0 800 800">
    <defs>
        <linearGradient x1="50%" y1="0%" x2="50%" y2="100%" id="ffflurry-grad" gradientTransform="rotate(270)">
            <stop stop-color="transparent" stop-opacity="1" offset="0%"></stop>
            <stop stop-color="#1f9d55" stop-opacity="1" offset="45%"></stop>
            <stop stop-color="#22c55e" stop-opacity="1" offset="100%"></stop>
        </linearGradient>
    </defs>
    <rect width="100%" height="100%" fill="transparent"></rect>
    <g fill="url(#ffflurry-grad)">
        <rect width="408" height="3" x="-30" y="272.5" rx="1.5" transform="rotate(45, 174, 274)" opacity="0.93"></rect>
        <rect width="556" height="3" x="-100" y="756.5" rx="1.5" transform="rotate(45, 178, 758)" opacity="0.16"></rect>
        <rect width="336" height="3" x="98" y="726.5" rx="1.5" transform="rotate(45, 266, 728)" opacity="0.23"></rect>
        <rect width="386" height="3" x="-65" y="522.5" rx="1.5" transform="rotate(45, 128, 524)" opacity="0.84"></rect>
        <rect width="304" height="3" x="456" y="406.5" rx="1.5" transform="rotate(45, 608, 408)" opacity="0.76"></rect>
        <rect width="306" height="3" x="523" y="418.5" rx="1.5" transform="rotate(45, 676, 420)" opacity="0.30"></rect>
        <rect width="398" height="3" x="119" y="420.5" rx="1.5" transform="rotate(45, 318, 422)" opacity="0.58"></rect>
        <rect width="300" height="3" x="338" y="169.5" rx="1.5" transform="rotate(45, 488, 171)" opacity="0.54"></rect>
        <rect width="34" height="3" x="52" y="195.5" rx="1.5" transform="rotate(45, 69, 197)" opacity="0.52"></rect>
        <rect width="193" height="3" x="198.5" y="633.5" rx="1.5" transform="rotate(45, 295, 635)" opacity="0.26">
        </rect>
        <rect width="254" height="3" x="604" y="456.5" rx="1.5" transform="rotate(45, 731, 458)" opacity="0.84"></rect>
        <rect width="407" height="3" x="35.5" y="524.5" rx="1.5" transform="rotate(45, 239, 526)" opacity="0.40"></rect>
        <rect width="205" height="3" x="-68.5" y="548.5" rx="1.5" transform="rotate(45, 34, 550)" opacity="0.96"></rect>
        <rect width="386" height="3" x="377" y="253.5" rx="1.5" transform="rotate(45, 570, 255)" opacity="0.72"></rect>
        <rect width="600" height="3" x="177" y="750.5" rx="1.5" transform="rotate(45, 477, 752)" opacity="0.97"></rect>
        <rect width="280" height="3" x="-24" y="322.5" rx="1.5" transform="rotate(45, 116, 324)" opacity="0.08"></rect>
        <rect width="252" height="3" x="635" y="580.5" rx="1.5" transform="rotate(45, 761, 582)" opacity="0.55"></rect>
        <rect width="609" height="3" x="-72.5" y="108.5" rx="1.5" transform="rotate(45, 232, 110)" opacity="0.93">
        </rect>
        <rect width="179" height="3" x="27.5" y="602.5" rx="1.5" transform="rotate(45, 117, 604)" opacity="0.27"></rect>
        <rect width="375" height="3" x="-70.5" y="114.5" rx="1.5" transform="rotate(45, 117, 116)" opacity="0.49">
        </rect>
        <rect width="286" height="3" x="371" y="640.5" rx="1.5" transform="rotate(45, 514, 642)" opacity="0.87"></rect>
        <rect width="595" height="3" x="218.5" y="369.5" rx="1.5" transform="rotate(45, 516, 371)" opacity="0.92">
        </rect>
        <rect width="332" height="3" x="-23" y="192.5" rx="1.5" transform="rotate(45, 143, 194)" opacity="0.47"></rect>
        <rect width="193" height="3" x="114.5" y="442.5" rx="1.5" transform="rotate(45, 211, 444)" opacity="0.32">
        </rect>
        <rect width="75" height="3" x="313.5" y="563.5" rx="1.5" transform="rotate(45, 351, 565)" opacity="0.71"></rect>
        <rect width="105" height="3" x="522.5" y="171.5" rx="1.5" transform="rotate(45, 575, 173)" opacity="0.64">
        </rect>
        <rect width="196" height="3" x="-24" y="282.5" rx="1.5" transform="rotate(45, 74, 284)" opacity="0.80"></rect>
        <rect width="503" height="3" x="151.5" y="654.5" rx="1.5" transform="rotate(45, 403, 656)" opacity="0.08">
        </rect>
        <rect width="403" height="3" x="282.5" y="60.5" rx="1.5" transform="rotate(45, 484, 62)" opacity="0.79"></rect>
        <rect width="395" height="3" x="68.5" y="326.5" rx="1.5" transform="rotate(45, 266, 328)" opacity="0.13"></rect>
        <rect width="353" height="3" x="397.5" y="30.5" rx="1.5" transform="rotate(45, 574, 32)" opacity="0.07"></rect>
        <rect width="490" height="3" x="-20" y="31.5" rx="1.5" transform="rotate(45, 225, 33)" opacity="0.64"></rect>
        <rect width="538" height="3" x="359" y="306.5" rx="1.5" transform="rotate(45, 628, 308)" opacity="0.16"></rect>
        <rect width="547" height="3" x="337.5" y="540.5" rx="1.5" transform="rotate(45, 611, 542)" opacity="0.66">
        </rect>
        <rect width="418" height="3" x="270" y="543.5" rx="1.5" transform="rotate(45, 479, 545)" opacity="0.64"></rect>
        <rect width="257" height="3" x="582.5" y="757.5" rx="1.5" transform="rotate(45, 711, 759)" opacity="0.71">
        </rect>
        <rect width="369" height="3" x="168.5" y="752.5" rx="1.5" transform="rotate(45, 353, 754)" opacity="0.91">
        </rect>
        <rect width="288" height="3" x="135" y="181.5" rx="1.5" transform="rotate(45, 279, 183)" opacity="0.49"></rect>
        <rect width="297" height="3" x="619.5" y="114.5" rx="1.5" transform="rotate(45, 768, 116)" opacity="0.12">
        </rect>
        <rect width="645" height="3" x="155.5" y="276.5" rx="1.5" transform="rotate(45, 478, 278)" opacity="0.78">
        </rect>
        <rect width="465" height="3" x="163.5" y="349.5" rx="1.5" transform="rotate(45, 396, 351)" opacity="0.21">
        </rect>
        <rect width="314" height="3" x="-23" y="683.5" rx="1.5" transform="rotate(45, 134, 685)" opacity="0.45"></rect>
        <rect width="640" height="3" x="277" y="713.5" rx="1.5" transform="rotate(45, 597, 715)" opacity="0.81"></rect>
        <rect width="76" height="3" x="3" y="394.5" rx="1.5" transform="rotate(45, 41, 396)" opacity="0.74"></rect>
        <rect width="581" height="3" x="-237.5" y="742.5" rx="1.5" transform="rotate(45, 53, 744)" opacity="0.71">
        </rect>
        <rect width="208" height="3" x="222" y="241.5" rx="1.5" transform="rotate(45, 326, 243)" opacity="0.69"></rect>
        <rect width="32" height="3" x="6" y="159.5" rx="1.5" transform="rotate(45, 22, 161)" opacity="0.20"></rect>
        <rect width="220" height="3" x="278" y="36.5" rx="1.5" transform="rotate(45, 388, 38)" opacity="0.67"></rect>
        <rect width="374" height="3" x="229" y="193.5" rx="1.5" transform="rotate(45, 416, 195)" opacity="0.78"></rect>
        <rect width="106" height="3" x="-24" y="338.5" rx="1.5" transform="rotate(45, 29, 340)" opacity="0.65"></rect>
        <rect width="450" height="3" x="-186" y="632.5" rx="1.5" transform="rotate(45, 39, 634)" opacity="0.86"></rect>
        <rect width="242" height="3" x="293" y="111.5" rx="1.5" transform="rotate(45, 414, 113)" opacity="0.17"></rect>
        <rect width="169" height="3" x="598.5" y="129.5" rx="1.5" transform="rotate(45, 683, 131)" opacity="0.99">
        </rect>
        <rect width="98" height="3" x="292" y="134.5" rx="1.5" transform="rotate(45, 341, 136)" opacity="0.74"></rect>
        <rect width="204" height="3" x="668" y="335.5" rx="1.5" transform="rotate(45, 770, 337)" opacity="0.26"></rect>
        <rect width="356" height="3" x="537" y="33.5" rx="1.5" transform="rotate(45, 715, 35)" opacity="0.29"></rect>
        <rect width="583" height="3" x="-83.5" y="620.5" rx="1.5" transform="rotate(45, 208, 622)" opacity="0.52">
        </rect>
        <rect width="205" height="3" x="74.5" y="366.5" rx="1.5" transform="rotate(45, 177, 368)" opacity="0.20"></rect>
        <rect width="110" height="3" x="55" y="426.5" rx="1.5" transform="rotate(45, 110, 428)" opacity="0.47"></rect>
        <rect width="236" height="3" x="427" y="474.5" rx="1.5" transform="rotate(45, 545, 476)" opacity="0.26"></rect>
        <rect width="120" height="3" x="93" y="37.5" rx="1.5" transform="rotate(45, 153, 39)" opacity="0.28"></rect>
        <rect width="564" height="3" x="415" y="320.5" rx="1.5" transform="rotate(45, 697, 322)" opacity="0.85"></rect>
        <rect width="219" height="3" x="586.5" y="526.5" rx="1.5" transform="rotate(45, 696, 528)" opacity="0.74">
        </rect>
        <rect width="356" height="3" x="426" y="97.5" rx="1.5" transform="rotate(45, 604, 99)" opacity="0.95"></rect>
        <rect width="478" height="3" x="507" y="672.5" rx="1.5" transform="rotate(45, 746, 674)" opacity="0.21"></rect>
        <rect width="147" height="3" x="698.5" y="498.5" rx="1.5" transform="rotate(45, 772, 500)" opacity="0.98">
        </rect>
        <rect width="110" height="3" x="641" y="210.5" rx="1.5" transform="rotate(45, 696, 212)" opacity="0.70"></rect>
        <rect width="193" height="3" x="-72.5" y="266.5" rx="1.5" transform="rotate(45, 24, 268)" opacity="0.47"></rect>
        <rect width="477" height="3" x="417.5" y="614.5" rx="1.5" transform="rotate(45, 656, 616)" opacity="0.52">
        </rect>
        <rect width="329" height="3" x="228.5" y="260.5" rx="1.5" transform="rotate(45, 393, 262)" opacity="0.08">
        </rect>
        <rect width="136" height="3" x="236" y="42.5" rx="1.5" transform="rotate(45, 304, 44)" opacity="0.99"></rect>
        <rect width="633" height="3" x="-265.5" y="47.5" rx="1.5" transform="rotate(45, 51, 49)" opacity="0.60"></rect>
        <rect width="267" height="3" x="625.5" y="396.5" rx="1.5" transform="rotate(45, 759, 398)" opacity="0.77">
        </rect>
        <rect width="522" height="3" x="-217" y="476.5" rx="1.5" transform="rotate(45, 44, 478)" opacity="0.39"></rect>
        <rect width="84" height="3" x="720" y="255.5" rx="1.5" transform="rotate(45, 762, 257)" opacity="0.75"></rect>
        <rect width="253" height="3" x="273.5" y="472.5" rx="1.5" transform="rotate(45, 400, 474)" opacity="0.29">
        </rect>
        <rect width="449" height="3" x="-1.5" y="215.5" rx="1.5" transform="rotate(45, 223, 217)" opacity="0.64"></rect>
    </g>
</svg>