<svg xmlns="http://www.w3.org/2000/svg" version="1.1" xmlns:xlink="http://www.w3.org/1999/xlink"
    xmlns:svgjs="http://svgjs.dev/svgjs" viewBox="0 0 325 100">
    <defs>
        <linearGradient x1="50%" y1="0%" x2="50%" y2="100%" id="ssspill-grad">
            <stop stop-color="#22c55e" stop-opacity="1" offset="45%"></stop>
            <stop stop-color="#1f9d55" stop-opacity="1" offset="100%"></stop>
        </linearGradient>
    </defs>
    <rect width="100%" height="100%" fill="#fff"></rect>
    <g fill="url(#ssspill-grad)">
        <rect width="100%" height="40" fill="#22c55e"></rect>

        <rect x="0" width="7.69%" height="81.2918860044424" rx="15"></rect>
        <rect x="50" width="7.69%" height="91.68892764350468" rx="15"></rect>
        <rect x="100" width="7.69%" height="86.95652607195113" rx="15"></rect>
        <rect x="150" width="7.69%" height="56.7680580317954" rx="15"></rect>
        <rect x="200" width="7.69%" height="80.26807498867453" rx="15"></rect>
        <rect x="250" width="7.69%" height="90.44888378413756" rx="15"></rect>
        <rect x="300" width="7.69%" height="59.793861568116036" rx="15"></rect>
    </g>
    <g fill="#fff">
        <rect x="25" y="16.47163910259413" width="7.69%" height="60" rx="15"></rect>
        <rect x="75" y="12.677264739699732" width="7.69%" height="60" rx="15"></rect>
        <rect x="125" y="25.78143085186328" width="7.69%" height="60" rx="15"></rect>
        <rect x="175" y="24.90476203571969" width="7.69%" height="60" rx="15"></rect>
        <rect x="225" y="19.243506300344954" width="7.69%" height="60" rx="15"></rect>
        <rect x="275" y="20.54827632489694" width="7.69%" height="60" rx="15"></rect>
    </g>
</svg>