<svg xmlns="http://www.w3.org/2000/svg" xmlns:xlink="http://www.w3.org/1999/xlink" width="500" zoomAndPan="magnify"
    viewBox="0 0 375 374.999991" height="500" preserveAspectRatio="xMidYMid meet" version="1.0">
    <defs>
        <clipPath id="87db19c8ce">
            <path d="M 32 55 L 234 55 L 234 374.664062 L 32 374.664062 Z M 32 55 " clip-rule="nonzero" />
        </clipPath>
        <clipPath id="f1f7f06195">
            <path d="M 284 103 L 360.734375 103 L 360.734375 225 L 284 225 Z M 284 103 " clip-rule="nonzero" />
        </clipPath>
        <clipPath id="28dcbd94db">
            <path d="M 354 106 L 360.734375 106 L 360.734375 222 L 354 222 Z M 354 106 " clip-rule="nonzero" />
        </clipPath>
        <clipPath id="942f6eeb7c">
            <path d="M 322 103 L 360.734375 103 L 360.734375 225 L 322 225 Z M 322 103 " clip-rule="nonzero" />
        </clipPath>
    </defs>
    <g clip-path="url(#87db19c8ce)">
        <path fill="#dddddd"
            d="M 103.539062 244.707031 L 44.660156 303.585938 C 28.394531 319.851562 28.394531 346.210938 44.660156 362.476562 C 60.914062 378.730469 87.273438 378.730469 103.539062 362.476562 L 221.308594 244.707031 C 237.574219 228.441406 237.574219 202.082031 221.308594 185.816406 L 103.539062 68.046875 C 87.273438 51.78125 60.914062 51.78125 44.660156 68.046875 C 28.394531 84.3125 28.394531 110.671875 44.660156 126.9375 L 103.539062 185.816406 C 119.804688 202.082031 119.804688 228.441406 103.539062 244.707031 "
            fill-opacity="1" fill-rule="nonzero" />
    </g>
    <path fill="#dddddd"
        d="M 42.898438 226.445312 L 20.503906 248.832031 C 14.332031 255.011719 14.332031 265.035156 20.503906 271.214844 C 26.683594 277.394531 36.71875 277.394531 42.898438 271.214844 L 87.65625 226.445312 C 93.835938 220.265625 93.835938 210.242188 87.65625 204.0625 L 42.898438 159.292969 C 36.71875 153.113281 26.683594 153.113281 20.503906 159.292969 C 14.332031 165.476562 14.332031 175.496094 20.503906 181.679688 L 42.898438 204.0625 C 49.066406 210.242188 49.066406 220.265625 42.898438 226.445312 "
        fill-opacity="1" fill-rule="nonzero" />
    <path fill="#aaaaaa"
        d="M 31.707031 275.84375 C 30.625 275.84375 29.527344 275.734375 28.457031 275.511719 C 31.375 274.898438 34.144531 273.480469 36.410156 271.214844 L 81.179688 226.445312 C 87.347656 220.265625 87.347656 210.242188 81.179688 204.0625 L 36.410156 159.292969 C 34.144531 157.042969 31.375 155.613281 28.457031 155.007812 C 29.527344 154.789062 30.625 154.675781 31.707031 154.675781 C 35.757812 154.675781 39.808594 156.214844 42.898438 159.292969 L 87.65625 204.0625 C 90.746094 207.152344 92.296875 211.203125 92.296875 215.253906 C 92.296875 219.304688 90.746094 223.355469 87.65625 226.445312 L 42.898438 271.214844 C 39.808594 274.304688 35.757812 275.84375 31.707031 275.84375 "
        fill-opacity="1" fill-rule="nonzero" />
    <path fill="#aaaaaa"
        d="M 201.140625 264.875 L 142.46875 206.207031 C 126.21875 189.941406 126.21875 163.578125 142.46875 147.3125 L 162.636719 127.144531 L 221.308594 185.816406 C 229.445312 193.941406 233.507812 204.605469 233.507812 215.253906 C 233.507812 225.917969 229.445312 236.566406 221.308594 244.707031 L 201.140625 264.875 "
        fill-opacity="1" fill-rule="nonzero" />
    <path fill="#22c55e"
        d="M 273.070312 134.484375 L 331.960938 75.59375 C 348.226562 59.339844 348.226562 32.96875 331.960938 16.714844 C 315.695312 0.449219 289.335938 0.449219 273.070312 16.714844 L 155.300781 134.484375 C 139.046875 150.738281 139.046875 177.109375 155.300781 193.363281 L 273.070312 311.132812 C 289.335938 327.398438 315.695312 327.398438 331.960938 311.132812 C 348.226562 294.878906 348.226562 268.507812 331.960938 252.253906 L 273.070312 193.363281 C 256.816406 177.109375 256.816406 150.738281 273.070312 134.484375 "
        fill-opacity="1" fill-rule="nonzero" />
    <g clip-path="url(#f1f7f06195)">
        <path fill="#22c55e"
            d="M 333.722656 152.730469 L 356.105469 130.347656 C 362.285156 124.167969 362.285156 114.144531 356.105469 107.964844 C 349.925781 101.78125 339.902344 101.78125 333.722656 107.964844 L 288.953125 152.730469 C 282.773438 158.914062 282.773438 168.933594 288.953125 175.117188 L 333.722656 219.882812 C 339.902344 226.066406 349.925781 226.066406 356.105469 219.882812 C 362.285156 213.703125 362.285156 203.679688 356.105469 197.5 L 333.722656 175.117188 C 327.539062 168.933594 327.539062 158.914062 333.722656 152.730469 "
            fill-opacity="1" fill-rule="nonzero" />
    </g>
    <g clip-path="url(#28dcbd94db)">
        <path fill="#d3d2d2"
            d="M 354.257812 221.472656 C 354.898438 220.992188 355.527344 220.464844 356.105469 219.882812 C 359.195312 216.792969 360.734375 212.742188 360.734375 208.691406 C 360.734375 212.742188 359.195312 216.792969 356.105469 219.882812 C 355.527344 220.464844 354.898438 220.992188 354.257812 221.472656 M 356.105469 107.964844 C 355.5625 107.421875 354.984375 106.917969 354.382812 106.460938 C 354.984375 106.917969 355.5625 107.421875 356.105469 107.964844 "
            fill-opacity="1" fill-rule="nonzero" />
    </g>
    <g clip-path="url(#942f6eeb7c)">
        <path fill="#1f9d55"
            d="M 344.925781 224.515625 C 343.828125 224.515625 342.746094 224.402344 341.675781 224.167969 C 344.582031 223.566406 347.351562 222.136719 349.617188 219.882812 C 355.796875 213.703125 355.796875 203.679688 349.617188 197.5 L 327.234375 175.117188 C 321.050781 168.933594 321.050781 158.914062 327.234375 152.730469 L 349.617188 130.347656 C 355.796875 124.167969 355.796875 114.144531 349.617188 107.964844 C 347.351562 105.699219 344.582031 104.28125 341.675781 103.667969 C 342.746094 103.445312 343.828125 103.332031 344.925781 103.332031 C 348.25 103.332031 351.585938 104.378906 354.382812 106.460938 C 354.984375 106.917969 355.5625 107.421875 356.105469 107.964844 C 359.195312 111.054688 360.734375 115.105469 360.734375 119.15625 C 360.734375 123.207031 359.195312 127.257812 356.105469 130.347656 L 333.722656 152.730469 C 330.632812 155.824219 329.078125 159.875 329.078125 163.925781 C 329.078125 167.976562 330.632812 172.027344 333.722656 175.117188 L 356.105469 197.5 C 359.195312 200.589844 360.734375 204.640625 360.734375 208.691406 C 360.734375 212.742188 359.195312 216.792969 356.105469 219.882812 C 355.527344 220.464844 354.898438 220.992188 354.257812 221.472656 C 351.488281 223.503906 348.199219 224.515625 344.925781 224.515625 "
            fill-opacity="1" fill-rule="nonzero" />
    </g>
</svg>