<svg xmlns="http://www.w3.org/2000/svg" xmlns:xlink="http://www.w3.org/1999/xlink" width="500" zoomAndPan="magnify"
    viewBox="0 0 375 374.999991" height="500" preserveAspectRatio="xMidYMid meet" version="1.0">
    <defs>
        <g />
        <clipPath id="c4015c4e76">
            <path d="M 109 86.007812 L 211 86.007812 L 211 247.269531 L 109 247.269531 Z M 109 86.007812 "
                clip-rule="nonzero" />
        </clipPath>
        <clipPath id="57ec6df816">
            <path d="M 100.085938 136 L 140 136 L 140 198 L 100.085938 198 Z M 100.085938 136 " clip-rule="nonzero" />
        </clipPath>
        <clipPath id="44f37b3157">
            <path
                d="M 236.089844 110 L 274.835938 110 L 274.835938 171.90625 L 236.089844 171.90625 Z M 236.089844 110 "
                clip-rule="nonzero" />
        </clipPath>
        <clipPath id="7fe2f3b992">
            <path
                d="M 271.085938 112 L 274.835938 112 L 274.835938 170.316406 L 271.085938 170.316406 Z M 271.085938 112 "
                clip-rule="nonzero" />
        </clipPath>
        <clipPath id="01635ee1e5">
            <path
                d="M 255.179688 110 L 274.835938 110 L 274.835938 171.90625 L 255.179688 171.90625 Z M 255.179688 110 "
                clip-rule="nonzero" />
        </clipPath>
    </defs>
    <g clip-path="url(#c4015c4e76)">
        <path fill="#dddddd"
            d="M 145.121094 181.769531 L 115.40625 211.480469 C 107.199219 219.691406 107.199219 232.996094 115.40625 241.203125 C 123.609375 249.40625 136.914062 249.40625 145.121094 241.203125 L 204.554688 181.769531 C 212.765625 173.558594 212.765625 160.257812 204.554688 152.046875 L 145.121094 92.613281 C 136.914062 84.40625 123.609375 84.40625 115.40625 92.613281 C 107.199219 100.820312 107.199219 114.125 115.40625 122.332031 L 145.121094 152.046875 C 153.332031 160.257812 153.332031 173.558594 145.121094 181.769531 "
            fill-opacity="1" fill-rule="nonzero" />
    </g>
    <g clip-path="url(#57ec6df816)">
        <path fill="#dddddd"
            d="M 114.519531 172.554688 L 103.214844 183.847656 C 100.101562 186.96875 100.101562 192.027344 103.214844 195.144531 C 106.335938 198.265625 111.398438 198.265625 114.519531 195.144531 L 137.105469 172.554688 C 140.226562 169.433594 140.226562 164.375 137.105469 161.257812 L 114.519531 138.664062 C 111.398438 135.542969 106.335938 135.542969 103.214844 138.664062 C 100.101562 141.78125 100.101562 146.839844 103.214844 149.960938 L 114.519531 161.257812 C 117.632812 164.375 117.632812 169.433594 114.519531 172.554688 "
            fill-opacity="1" fill-rule="nonzero" />
    </g>
    <path fill="#aaaaaa"
        d="M 108.871094 197.484375 C 108.324219 197.484375 107.769531 197.425781 107.230469 197.316406 C 108.703125 197.003906 110.101562 196.289062 111.246094 195.144531 L 133.835938 172.554688 C 136.949219 169.433594 136.949219 164.375 133.835938 161.257812 L 111.246094 138.664062 C 110.101562 137.527344 108.703125 136.804688 107.230469 136.5 C 107.769531 136.390625 108.324219 136.332031 108.871094 136.332031 C 110.914062 136.332031 112.960938 137.109375 114.519531 138.664062 L 137.105469 161.257812 C 138.664062 162.816406 139.449219 164.859375 139.449219 166.90625 C 139.449219 168.949219 138.664062 170.992188 137.105469 172.554688 L 114.519531 195.144531 C 112.960938 196.707031 110.914062 197.484375 108.871094 197.484375 "
        fill-opacity="1" fill-rule="nonzero" />
    <path fill="#aaaaaa"
        d="M 194.378906 191.945312 L 164.769531 162.335938 C 156.566406 154.128906 156.566406 140.824219 164.769531 132.617188 L 174.949219 122.4375 L 204.554688 152.046875 C 208.664062 156.148438 210.714844 161.53125 210.714844 166.90625 C 210.714844 172.285156 208.664062 177.660156 204.554688 181.769531 L 194.378906 191.945312 "
        fill-opacity="1" fill-rule="nonzero" />
    <path fill="#22c55e"
        d="M 230.679688 126.140625 L 260.398438 96.421875 C 268.609375 88.21875 268.609375 74.910156 260.398438 66.707031 C 252.191406 58.5 238.886719 58.5 230.679688 66.707031 L 171.246094 126.140625 C 163.042969 134.34375 163.042969 147.65625 171.246094 155.855469 L 230.679688 215.292969 C 238.886719 223.5 252.191406 223.5 260.398438 215.292969 C 268.609375 207.089844 268.609375 193.777344 260.398438 185.578125 L 230.679688 155.855469 C 222.476562 147.65625 222.476562 134.34375 230.679688 126.140625 "
        fill-opacity="1" fill-rule="nonzero" />
    <g clip-path="url(#44f37b3157)">
        <path fill="#22c55e"
            d="M 261.289062 135.351562 L 272.585938 124.054688 C 275.703125 120.933594 275.703125 115.878906 272.585938 112.757812 C 269.464844 109.640625 264.40625 109.640625 261.289062 112.757812 L 238.695312 135.351562 C 235.574219 138.46875 235.574219 143.527344 238.695312 146.648438 L 261.289062 169.242188 C 264.40625 172.359375 269.464844 172.359375 272.585938 169.242188 C 275.703125 166.121094 275.703125 161.0625 272.585938 157.945312 L 261.289062 146.648438 C 258.167969 143.527344 258.167969 138.46875 261.289062 135.351562 "
            fill-opacity="1" fill-rule="nonzero" />
    </g>
    <g clip-path="url(#7fe2f3b992)">
        <path fill="#d3d2d2"
            d="M 271.652344 170.042969 C 271.976562 169.800781 272.292969 169.53125 272.585938 169.242188 C 274.144531 167.679688 274.921875 165.636719 274.921875 163.59375 C 274.921875 165.636719 274.144531 167.679688 272.585938 169.242188 C 272.292969 169.53125 271.976562 169.800781 271.652344 170.042969 M 272.585938 112.757812 C 272.3125 112.484375 272.019531 112.230469 271.714844 112 C 272.019531 112.230469 272.3125 112.484375 272.585938 112.757812 "
            fill-opacity="1" fill-rule="nonzero" />
    </g>
    <g clip-path="url(#01635ee1e5)">
        <path fill="#1f9d55"
            d="M 266.941406 171.578125 C 266.390625 171.578125 265.84375 171.519531 265.300781 171.402344 C 266.769531 171.097656 268.167969 170.378906 269.308594 169.242188 C 272.429688 166.121094 272.429688 161.0625 269.308594 157.945312 L 258.011719 146.648438 C 254.894531 143.527344 254.894531 138.46875 258.011719 135.351562 L 269.308594 124.054688 C 272.429688 120.933594 272.429688 115.878906 269.308594 112.757812 C 268.167969 111.613281 266.769531 110.898438 265.300781 110.589844 C 265.84375 110.476562 266.390625 110.421875 266.941406 110.421875 C 268.621094 110.421875 270.304688 110.949219 271.714844 112 C 272.019531 112.230469 272.3125 112.484375 272.585938 112.757812 C 274.144531 114.316406 274.921875 116.363281 274.921875 118.40625 C 274.921875 120.449219 274.144531 122.496094 272.585938 124.054688 L 261.289062 135.351562 C 259.726562 136.910156 258.945312 138.957031 258.945312 141 C 258.945312 143.042969 259.726562 145.089844 261.289062 146.648438 L 272.585938 157.945312 C 274.144531 159.503906 274.921875 161.546875 274.921875 163.59375 C 274.921875 165.636719 274.144531 167.679688 272.585938 169.242188 C 272.292969 169.53125 271.976562 169.800781 271.652344 170.042969 C 270.253906 171.066406 268.59375 171.578125 266.941406 171.578125 "
            fill-opacity="1" fill-rule="nonzero" />
    </g>
    <g fill="#373636" fill-opacity="1">
        <g transform="translate(48.663012, 297.505936)">
            <g>
                <path
                    d="M 18.125 0.8125 C 15.03125 0.8125 12.300781 0.25 9.9375 -0.875 C 7.570312 -2 5.71875 -3.601562 4.375 -5.6875 C 3.039062 -7.78125 2.375 -10.28125 2.375 -13.1875 L 11.265625 -13.1875 C 11.265625 -11.207031 11.953125 -9.742188 13.328125 -8.796875 C 14.703125 -7.847656 16.28125 -7.375 18.0625 -7.375 C 19.1875 -7.375 20.242188 -7.554688 21.234375 -7.921875 C 22.222656 -8.296875 23.035156 -8.835938 23.671875 -9.546875 C 24.304688 -10.265625 24.625 -11.128906 24.625 -12.140625 C 24.625 -13.179688 24.253906 -14.003906 23.515625 -14.609375 C 22.785156 -15.210938 21.800781 -15.707031 20.5625 -16.09375 C 19.320312 -16.476562 17.96875 -16.847656 16.5 -17.203125 C 14.988281 -17.546875 13.4375 -17.96875 11.84375 -18.46875 C 10.257812 -18.976562 8.789062 -19.648438 7.4375 -20.484375 C 6.082031 -21.316406 5 -22.4375 4.1875 -23.84375 C 3.375 -25.257812 2.96875 -27.050781 2.96875 -29.21875 C 2.96875 -33.132812 4.289062 -36.144531 6.9375 -38.25 C 9.59375 -40.363281 13.1875 -41.421875 17.71875 -41.421875 C 22.363281 -41.421875 25.960938 -40.25 28.515625 -37.90625 C 31.078125 -35.5625 32.359375 -32.375 32.359375 -28.34375 L 23.640625 -28.34375 C 23.640625 -30.09375 23.019531 -31.382812 21.78125 -32.21875 C 20.539062 -33.050781 19.109375 -33.46875 17.484375 -33.46875 C 16.054688 -33.46875 14.738281 -33.15625 13.53125 -32.53125 C 12.332031 -31.914062 11.734375 -30.945312 11.734375 -29.625 C 11.734375 -28.65625 12.09375 -27.890625 12.8125 -27.328125 C 13.53125 -26.765625 14.476562 -26.300781 15.65625 -25.9375 C 16.832031 -25.570312 18.140625 -25.210938 19.578125 -24.859375 C 21.128906 -24.472656 22.71875 -24.019531 24.34375 -23.5 C 25.96875 -22.976562 27.476562 -22.269531 28.875 -21.375 C 30.269531 -20.488281 31.398438 -19.304688 32.265625 -17.828125 C 33.140625 -16.359375 33.578125 -14.5 33.578125 -12.25 C 33.578125 -9.3125 32.867188 -6.875 31.453125 -4.9375 C 30.046875 -3 28.175781 -1.554688 25.84375 -0.609375 C 23.519531 0.335938 20.945312 0.8125 18.125 0.8125 Z M 18.125 0.8125 " />
            </g>
        </g>
    </g>
    <g fill="#373636" fill-opacity="1">
        <g transform="translate(81.30903, 297.505936)">
            <g>
                <path
                    d="M 4.0625 -35.546875 L 4.0625 -43.453125 L 12.546875 -43.453125 L 12.546875 -35.546875 Z M 4.0625 0 L 4.0625 -31.375 L 12.546875 -31.375 L 12.546875 0 Z M 4.0625 0 " />
            </g>
        </g>
    </g>
    <g fill="#373636" fill-opacity="1">
        <g transform="translate(94.611123, 297.505936)">
            <g>
                <path
                    d="M 29.390625 -31.375 L 34.921875 -31.375 L 34.921875 -3.65625 C 34.921875 -0.363281 34.269531 2.457031 32.96875 4.8125 C 31.664062 7.175781 29.8125 9 27.40625 10.28125 C 25.007812 11.5625 22.164062 12.203125 18.875 12.203125 C 14.613281 12.203125 11.0625 11.175781 8.21875 9.125 C 5.375 7.070312 3.601562 4.265625 2.90625 0.703125 L 11.328125 0.703125 C 11.796875 2.085938 12.753906 3.140625 14.203125 3.859375 C 15.648438 4.578125 17.148438 4.9375 18.703125 4.9375 C 20.867188 4.9375 22.71875 4.285156 24.25 2.984375 C 25.78125 1.691406 26.546875 -0.113281 26.546875 -2.4375 L 26.546875 -3.609375 C 25.304688 -2.710938 23.929688 -2.019531 22.421875 -1.53125 C 20.910156 -1.050781 19.304688 -0.8125 17.609375 -0.8125 C 14.703125 -0.8125 12.066406 -1.507812 9.703125 -2.90625 C 7.335938 -4.300781 5.46875 -6.175781 4.09375 -8.53125 C 2.71875 -10.894531 2.03125 -13.550781 2.03125 -16.5 C 2.03125 -19.4375 2.71875 -22.097656 4.09375 -24.484375 C 5.46875 -26.867188 7.335938 -28.753906 9.703125 -30.140625 C 12.066406 -31.535156 14.703125 -32.234375 17.609375 -32.234375 C 19.660156 -32.234375 21.578125 -31.882812 23.359375 -31.1875 C 25.140625 -30.5 26.707031 -29.515625 28.0625 -28.234375 Z M 18.59375 -8.359375 C 20.914062 -8.359375 22.832031 -9.125 24.34375 -10.65625 C 25.851562 -12.1875 26.609375 -14.132812 26.609375 -16.5 C 26.609375 -18.820312 25.863281 -20.75 24.375 -22.28125 C 22.882812 -23.8125 20.957031 -24.578125 18.59375 -24.578125 C 16.300781 -24.578125 14.398438 -23.8125 12.890625 -22.28125 C 11.378906 -20.75 10.625 -18.820312 10.625 -16.5 C 10.625 -14.132812 11.367188 -12.1875 12.859375 -10.65625 C 14.359375 -9.125 16.269531 -8.359375 18.59375 -8.359375 Z M 18.59375 -8.359375 " />
            </g>
        </g>
    </g>
    <g fill="#373636" fill-opacity="1">
        <g transform="translate(130.277806, 297.505936)">
            <g>
                <path
                    d="M 21.953125 -32.125 C 25.515625 -32.125 28.332031 -30.929688 30.40625 -28.546875 C 32.476562 -26.171875 33.515625 -22.988281 33.515625 -19 L 33.515625 0 L 25.03125 0 L 25.03125 -17.65625 C 25.03125 -22.34375 23.210938 -24.6875 19.578125 -24.6875 C 17.410156 -24.6875 15.695312 -23.953125 14.4375 -22.484375 C 13.175781 -21.015625 12.546875 -19.019531 12.546875 -16.5 L 12.546875 0 L 4.0625 0 L 4.0625 -31.375 L 9.875 -31.375 L 11.5625 -27.484375 C 12.71875 -28.910156 14.207031 -30.039062 16.03125 -30.875 C 17.851562 -31.707031 19.828125 -32.125 21.953125 -32.125 Z M 21.953125 -32.125 " />
            </g>
        </g>
    </g>
    <g fill="#373636" fill-opacity="1">
        <g transform="translate(164.2018, 297.505936)">
            <g>
                <path
                    d="M 29.6875 -31.421875 L 36.015625 -31.421875 L 36.015625 -0.0625 L 29.34375 -0.0625 L 28.640625 -2.84375 C 27.285156 -1.6875 25.742188 -0.773438 24.015625 -0.109375 C 22.296875 0.546875 20.445312 0.875 18.46875 0.875 C 15.332031 0.875 12.523438 0.148438 10.046875 -1.296875 C 7.566406 -2.753906 5.609375 -4.734375 4.171875 -7.234375 C 2.742188 -9.734375 2.03125 -12.570312 2.03125 -15.75 C 2.03125 -18.882812 2.742188 -21.695312 4.171875 -24.1875 C 5.609375 -26.6875 7.566406 -28.648438 10.046875 -30.078125 C 12.523438 -31.515625 15.332031 -32.234375 18.46875 -32.234375 C 20.488281 -32.234375 22.367188 -31.894531 24.109375 -31.21875 C 25.847656 -30.539062 27.394531 -29.601562 28.75 -28.40625 Z M 19.171875 -7.140625 C 20.796875 -7.140625 22.253906 -7.507812 23.546875 -8.25 C 24.847656 -8.988281 25.863281 -10.003906 26.59375 -11.296875 C 27.332031 -12.597656 27.703125 -14.082031 27.703125 -15.75 C 27.703125 -17.375 27.332031 -18.832031 26.59375 -20.125 C 25.863281 -21.425781 24.847656 -22.453125 23.546875 -23.203125 C 22.253906 -23.960938 20.796875 -24.34375 19.171875 -24.34375 C 17.503906 -24.34375 16.03125 -23.960938 14.75 -23.203125 C 13.476562 -22.453125 12.472656 -21.425781 11.734375 -20.125 C 10.992188 -18.832031 10.625 -17.375 10.625 -15.75 C 10.625 -14.082031 10.992188 -12.609375 11.734375 -11.328125 C 12.472656 -10.046875 13.476562 -9.023438 14.75 -8.265625 C 16.03125 -7.515625 17.503906 -7.140625 19.171875 -7.140625 Z M 19.171875 -7.140625 " />
            </g>
        </g>
    </g>
    <g fill="#373636" fill-opacity="1">
        <g transform="translate(200.972191, 297.505936)">
            <g>
                <path d="M 4.0625 0 L 4.0625 -42.703125 L 12.546875 -42.703125 L 12.546875 0 Z M 4.0625 0 " />
            </g>
        </g>
    </g>
    <g fill="#373636" fill-opacity="1">
        <g transform="translate(214.274287, 297.505936)">
            <g>
                <path
                    d="M 28.75 -40.671875 L 37.53125 -40.671875 L 37.53125 0 L 28.75 0 L 28.75 -16.796875 L 13.484375 -16.796875 L 13.484375 0 L 4.640625 0 L 4.640625 -40.671875 L 13.484375 -40.671875 L 13.484375 -24.984375 L 28.75 -24.984375 Z M 28.75 -40.671875 " />
            </g>
        </g>
    </g>
    <g fill="#373636" fill-opacity="1">
        <g transform="translate(253.194005, 297.505936)">
            <g>
                <path
                    d="M 18.421875 0.875 C 15.472656 0.875 12.882812 0.285156 10.65625 -0.890625 C 8.425781 -2.078125 6.703125 -3.722656 5.484375 -5.828125 C 4.265625 -7.941406 3.65625 -10.414062 3.65625 -13.25 L 3.65625 -31.375 L 12.140625 -31.375 L 12.140625 -14.234375 C 12.140625 -11.984375 12.691406 -10.226562 13.796875 -8.96875 C 14.898438 -7.71875 16.441406 -7.09375 18.421875 -7.09375 C 20.390625 -7.09375 21.914062 -7.726562 23 -9 C 24.082031 -10.28125 24.625 -12.023438 24.625 -14.234375 L 24.625 -31.375 L 33.109375 -31.375 L 33.109375 -13.25 C 33.109375 -10.414062 32.5 -7.941406 31.28125 -5.828125 C 30.0625 -3.722656 28.347656 -2.078125 26.140625 -0.890625 C 23.929688 0.285156 21.359375 0.875 18.421875 0.875 Z M 18.421875 0.875 " />
            </g>
        </g>
    </g>
    <g fill="#373636" fill-opacity="1">
        <g transform="translate(286.653277, 297.505936)">
            <g>
                <path
                    d="M 21.140625 -32.234375 C 24.359375 -32.234375 27.207031 -31.515625 29.6875 -30.078125 C 32.164062 -28.648438 34.109375 -26.6875 35.515625 -24.1875 C 36.929688 -21.695312 37.640625 -18.863281 37.640625 -15.6875 C 37.640625 -12.507812 36.929688 -9.671875 35.515625 -7.171875 C 34.109375 -4.671875 32.164062 -2.703125 29.6875 -1.265625 C 27.207031 0.160156 24.359375 0.875 21.140625 0.875 C 19.242188 0.875 17.460938 0.578125 15.796875 -0.015625 C 14.128906 -0.617188 12.640625 -1.484375 11.328125 -2.609375 L 10.34375 0 L 4.0625 0 L 4.0625 -42.703125 L 12.546875 -42.703125 L 12.546875 -29.6875 C 13.742188 -30.5 15.066406 -31.125 16.515625 -31.5625 C 17.972656 -32.007812 19.515625 -32.234375 21.140625 -32.234375 Z M 20.453125 -7.140625 C 22.117188 -7.140625 23.585938 -7.507812 24.859375 -8.25 C 26.140625 -8.988281 27.144531 -10.003906 27.875 -11.296875 C 28.613281 -12.597656 28.984375 -14.0625 28.984375 -15.6875 C 28.984375 -17.3125 28.613281 -18.769531 27.875 -20.0625 C 27.144531 -21.363281 26.140625 -22.390625 24.859375 -23.140625 C 23.585938 -23.898438 22.117188 -24.28125 20.453125 -24.28125 C 18.828125 -24.28125 17.363281 -23.898438 16.0625 -23.140625 C 14.757812 -22.390625 13.738281 -21.363281 13 -20.0625 C 12.269531 -18.769531 11.90625 -17.3125 11.90625 -15.6875 C 11.90625 -14.0625 12.269531 -12.609375 13 -11.328125 C 13.738281 -10.046875 14.757812 -9.023438 16.0625 -8.265625 C 17.363281 -7.515625 18.828125 -7.140625 20.453125 -7.140625 Z M 20.453125 -7.140625 " />
            </g>
        </g>
    </g>
</svg>